<svg width="37" height="32" viewBox="0 0 37 32" fill="none" xmlns="http://www.w3.org/2000/svg">
<g clip-path="url(#clip0_2034_621)">
<path d="M18.5 17.9583C20.0471 17.9583 21.5308 17.3437 22.6248 16.2497C23.7187 15.1558 24.3333 13.6721 24.3333 12.125C24.3333 10.5779 23.7187 9.09413 22.6248 8.00017C21.5308 6.90621 20.0471 6.29163 18.5 6.29163C16.9529 6.29163 15.4692 6.90621 14.3752 8.00017C13.2812 9.09413 12.6666 10.5779 12.6666 12.125C12.6666 13.6721 13.2812 15.1558 14.3752 16.2497C15.4692 17.3437 16.9529 17.9583 18.5 17.9583ZM18.5 17.9583C16.1793 17.9583 13.9537 18.8802 12.3128 20.5211C10.6719 22.1621 9.74998 24.3876 9.74998 26.7083V31.0833M18.5 17.9583C20.8206 17.9583 23.0462 18.8802 24.6872 20.5211C26.3281 22.1621 27.25 24.3876 27.25 26.7083V31.0833M19.9583 6.29163C20.5475 3.86496 22.8969 1.91663 25.7916 1.91663C28.9591 1.91663 31.5958 4.52704 31.625 7.74996C31.5958 10.9729 28.9591 13.5833 25.7916 13.5833M25.7916 13.5833H24.3333M25.7916 13.5833C30.5866 13.5833 34.5416 17.5004 34.5416 22.3333V25.25M17.0416 6.29163C16.4525 3.86496 14.1031 1.91663 11.2083 1.91663C8.04081 1.91663 5.40415 4.52704 5.37498 7.74996C5.40415 10.9729 8.04081 13.5833 11.2083 13.5833M11.2083 13.5833H12.6666M11.2083 13.5833C6.41331 13.5833 2.45831 17.5004 2.45831 22.3333V25.25" stroke="#565252" stroke-width="3.5"/>
</g>
<defs>
<clipPath id="clip0_2034_621">
<rect width="37" height="32" fill="white"/>
</clipPath>
</defs>
</svg>
