<svg width="37" height="30" viewBox="0 0 37 30" fill="none" xmlns="http://www.w3.org/2000/svg">
<g clip-path="url(#clip0_2034_616)">
<path d="M19.6207 28.8865H24.2651C25.2054 28.8861 26.1235 28.5642 26.8974 27.9636C27.6714 27.363 28.2647 26.5121 28.5987 25.5235C30.5304 25.6957 32.5146 24.9479 33.9934 23.28C35.2785 21.8278 36 19.8624 36 17.8137C36 15.765 35.2785 13.7996 33.9934 12.3474L24.7616 1.98315C24.4542 1.6363 24.0888 1.36111 23.6866 1.17334C23.2844 0.985571 22.8531 0.888916 22.4176 0.888916C21.9821 0.888916 21.5508 0.985571 21.1486 1.17334C20.7464 1.36111 20.381 1.6363 20.0736 1.98315C19.4522 2.68446 19.1034 3.63407 19.1034 4.62403C19.1034 5.61399 19.4522 6.5636 20.0736 7.26492L23.0094 10.5368C22.7563 10.9188 22.5317 11.3236 22.3378 11.7472C21.9483 11.68 21.5548 11.6463 21.1608 11.6463H13.1191C12.3994 11.6463 11.7037 11.757 11.043 11.9612C10.5495 11.1145 9.87773 10.4179 9.08735 9.93324C8.29696 9.44858 7.4124 9.19081 6.51217 9.18283C5.61194 9.17486 4.72388 9.41691 3.9268 9.8875C3.12971 10.3581 2.44826 11.0427 1.94292 11.8805C1.43757 12.7184 1.12397 13.6835 1.02992 14.6904C0.935881 15.6972 1.06431 16.7146 1.40382 17.6522C1.74333 18.5898 2.28342 19.4187 2.97615 20.0653C3.66889 20.7118 4.49284 21.1561 5.3749 21.3586V23.6564C5.3749 26.5445 7.44877 28.8889 10.017 28.8889L19.6207 28.8865ZM23.215 3.71996L32.4468 14.0842C33.3228 15.0756 33.8143 16.4166 33.8139 17.8142C33.8135 19.2118 33.3212 20.5524 32.4446 21.5431C31.8797 22.1827 31.1774 22.6474 30.4059 22.8922C29.6344 23.137 28.8198 23.1536 28.0409 22.9405L26.8399 22.6133L26.6977 23.9909C26.5533 25.3661 25.5164 26.4264 24.2651 26.4264H20.708V26.1804C20.708 23.4079 18.4766 21.4816 16.0658 21.4816H13.0316C12.7415 21.4816 12.4633 21.6112 12.2582 21.8419C12.053 22.0726 11.9378 22.3855 11.9378 22.7117C11.9378 23.0379 12.053 23.3508 12.2582 23.5815C12.4633 23.8121 12.7415 23.9417 13.0316 23.9417H16.0658C17.5753 23.9417 18.5203 25.0832 18.5203 26.1804V26.4264H10.017C9.69395 26.4257 9.37414 26.3535 9.07589 26.2138C8.77764 26.0741 8.5068 25.8696 8.27885 25.6122C8.0509 25.3547 7.87031 25.0492 7.7474 24.7132C7.62449 24.3772 7.56167 24.0172 7.56253 23.6539V20.382C7.55962 18.7213 8.14335 17.1273 9.18534 15.9504C10.2273 14.7736 11.6423 14.1103 13.1191 14.1064H21.1608C21.6815 14.1064 22.1868 14.1875 22.6615 14.3376L23.5869 14.6304L23.9632 13.6365C24.206 12.9969 24.5429 12.2416 24.9957 11.698L26.0961 10.5122L21.6224 5.52811C21.4099 5.28792 21.2905 4.96287 21.2905 4.62403C21.2905 4.28519 21.4099 3.96014 21.6224 3.71996C21.7267 3.60184 21.8508 3.5081 21.9874 3.44413C22.1241 3.38016 22.2707 3.34722 22.4187 3.34722C22.5667 3.34722 22.7133 3.38016 22.85 3.44413C22.9866 3.5081 23.1107 3.60184 23.215 3.71996ZM8.9998 12.9821C8.08377 13.6322 7.29865 14.4904 6.69476 15.5016C6.09087 16.5128 5.68155 17.6548 5.49303 18.8543C5.0052 18.6834 4.55961 18.3867 4.19175 17.9879C3.82389 17.5891 3.54392 17.0992 3.37416 16.5573C3.20439 16.0153 3.14951 15.4363 3.2139 14.8663C3.27829 14.2962 3.46016 13.751 3.74502 13.274C4.02989 12.797 4.40987 12.4014 4.85471 12.1187C5.29956 11.836 5.79696 11.674 6.3073 11.6456C6.81764 11.6173 7.32681 11.7234 7.79426 11.9554C8.26171 12.1874 8.67452 12.539 8.9998 12.9821Z" fill="#565252" stroke="#565252"/>
</g>
<defs>
<clipPath id="clip0_2034_616">
<rect width="37" height="30" fill="white"/>
</clipPath>
</defs>
</svg>
