<svg width="32" height="32" viewBox="0 0 32 32" fill="none" xmlns="http://www.w3.org/2000/svg">
<g clip-path="url(#clip0_2034_598)">
<path d="M12.7848 29.926C11.4363 29.926 10.299 29.4634 9.37296 28.5382C8.44687 27.6131 7.98429 26.4758 7.9852 25.1264C7.9852 24.9208 8.014 24.7608 8.07159 24.6465C8.12919 24.5322 8.12325 24.4408 8.05377 24.3722C7.9852 24.3037 7.89378 24.2977 7.77951 24.3544C7.66523 24.4111 7.50525 24.4399 7.29955 24.4408C5.95111 24.4408 4.81384 23.9782 3.88776 23.053C2.96167 22.1279 2.49909 20.9906 2.5 19.6412C2.5 18.2928 2.96259 17.1555 3.88776 16.2295C4.81293 15.3034 5.95019 14.8408 7.29955 14.8417C7.82522 14.8417 8.30517 14.9103 8.73942 15.0474C9.17366 15.1845 9.58505 15.3902 9.97359 15.6645L15.6645 9.97359C15.3902 9.58505 15.1845 9.17366 15.0474 8.73942C14.9103 8.30517 14.8417 7.82522 14.8417 7.29955C14.8417 5.95111 15.3047 4.81384 16.2308 3.88776C17.1569 2.96167 18.2937 2.49909 19.6413 2.5C20.9897 2.5 22.127 2.96259 23.053 3.88776C23.9791 4.81293 24.4417 5.95019 24.4408 7.29955C24.4408 7.50525 24.412 7.66523 24.3544 7.77951C24.2968 7.89378 24.3028 7.9852 24.3722 8.05377C24.4408 8.12233 24.5322 8.12827 24.6465 8.07159C24.7608 8.01491 24.9208 7.98611 25.1265 7.9852C26.4749 7.9852 27.6122 8.44779 28.5382 9.37296C29.4643 10.2981 29.9269 11.4354 29.926 12.7847C29.926 14.1332 29.4634 15.2705 28.5382 16.1965C27.6131 17.1226 26.4758 17.5852 25.1265 17.5843C24.6008 17.5843 24.1208 17.5157 23.6866 17.3786C23.2523 17.2415 22.841 17.0358 22.4524 16.7615L16.7615 22.4524C17.0358 22.8409 17.2415 23.2523 17.3786 23.6866C17.5157 24.1208 17.5843 24.6008 17.5843 25.1264C17.5843 26.4749 17.1217 27.6122 16.1965 28.5382C15.2714 29.4643 14.1341 29.9269 12.7848 29.926Z" fill="#F8F8F8" stroke="#565252" stroke-width="4"/>
</g>
<defs>
<clipPath id="clip0_2034_598">
<rect width="32" height="32" fill="white"/>
</clipPath>
</defs>
</svg>
