<svg width="80" height="80" viewBox="0 0 80 80" fill="none" xmlns="http://www.w3.org/2000/svg">
<circle cx="40" cy="40" r="40" fill="#D21312"/>
<mask id="path-2-inside-1_35_3071" fill="white">
<path d="M39.5438 50.5745L51.856 38.2622C49.7846 37.3974 47.9033 36.1338 46.3192 34.5433C44.728 32.9588 43.4638 31.0769 42.5986 29.0047L30.2863 41.317C29.3258 42.2775 28.8447 42.7586 28.4318 43.288C27.9442 43.9127 27.5261 44.5887 27.1849 45.304C26.8969 45.9099 26.6822 46.5559 26.2527 47.8443L23.9854 54.6414C23.881 54.9526 23.8655 55.2867 23.9406 55.6063C24.0158 55.9258 24.1785 56.218 24.4106 56.4501C24.6427 56.6823 24.935 56.845 25.2545 56.9201C25.574 56.9953 25.9082 56.9798 26.2194 56.8754L33.0164 54.6081C34.3066 54.1786 34.9508 53.9638 35.5568 53.6758C36.2726 53.3346 36.9485 52.9167 37.5728 52.429C38.1022 52.0161 38.5833 51.535 39.5438 50.5745ZM55.272 34.8462C56.4997 33.6186 57.1893 31.9536 57.1893 30.2175C57.1893 28.4814 56.4997 26.8164 55.272 25.5887C54.0444 24.3611 52.3794 23.6714 50.6433 23.6714C48.9072 23.6714 47.2422 24.3611 46.0146 25.5887L44.538 27.0653L44.6012 27.2501C45.3289 29.3322 46.5197 31.222 48.0838 32.777C49.6853 34.3879 51.6412 35.6022 53.7954 36.3228L55.272 34.8462Z"/>
</mask>
<path d="M39.5438 50.5745L51.856 38.2622C49.7846 37.3974 47.9033 36.1338 46.3192 34.5433C44.728 32.9588 43.4638 31.0769 42.5986 29.0047L30.2863 41.317C29.3258 42.2775 28.8447 42.7586 28.4318 43.288C27.9442 43.9127 27.5261 44.5887 27.1849 45.304C26.8969 45.9099 26.6822 46.5559 26.2527 47.8443L23.9854 54.6414C23.881 54.9526 23.8655 55.2867 23.9406 55.6063C24.0158 55.9258 24.1785 56.218 24.4106 56.4501C24.6427 56.6823 24.935 56.845 25.2545 56.9201C25.574 56.9953 25.9082 56.9798 26.2194 56.8754L33.0164 54.6081C34.3066 54.1786 34.9508 53.9638 35.5568 53.6758C36.2726 53.3346 36.9485 52.9167 37.5728 52.429C38.1022 52.0161 38.5833 51.535 39.5438 50.5745ZM55.272 34.8462C56.4997 33.6186 57.1893 31.9536 57.1893 30.2175C57.1893 28.4814 56.4997 26.8164 55.272 25.5887C54.0444 24.3611 52.3794 23.6714 50.6433 23.6714C48.9072 23.6714 47.2422 24.3611 46.0146 25.5887L44.538 27.0653L44.6012 27.2501C45.3289 29.3322 46.5197 31.222 48.0838 32.777C49.6853 34.3879 51.6412 35.6022 53.7954 36.3228L55.272 34.8462Z" fill="#F8F8F8"/>
<path d="M51.856 38.2622L52.5632 38.9693L53.6182 37.9143L52.2413 37.3394L51.856 38.2622ZM46.3192 34.5433L47.0277 33.8376L47.0248 33.8346L46.3192 34.5433ZM42.5986 29.0047L43.5213 28.6194L42.9465 27.2426L41.8914 28.2976L42.5986 29.0047ZM30.2863 41.317L30.9934 42.0241L30.2863 41.317ZM28.4318 43.288L29.2201 43.9033L29.2204 43.903L28.4318 43.288ZM27.1849 45.304L26.2824 44.8734L26.2818 44.8747L27.1849 45.304ZM26.2527 47.8443L27.2013 48.1608L27.2014 48.1606L26.2527 47.8443ZM23.9854 54.6414L24.9335 54.9593L24.934 54.9578L23.9854 54.6414ZM26.2194 56.8754L25.903 55.9268L25.9015 55.9273L26.2194 56.8754ZM33.0164 54.6081L32.7006 53.6593L32.7 53.6595L33.0164 54.6081ZM35.5568 53.6758L35.9861 54.579L35.9871 54.5785L35.5568 53.6758ZM37.5728 52.429L36.9578 51.6404L36.9571 51.641L37.5728 52.429ZM55.272 34.8462L54.5649 34.1391H54.5649L55.272 34.8462ZM57.1893 30.2175H56.1893H57.1893ZM44.538 27.0653L43.8308 26.3582L43.3899 26.7992L43.5919 27.3892L44.538 27.0653ZM44.6012 27.2501L43.6551 27.574L43.6572 27.58L44.6012 27.2501ZM48.0838 32.777L48.793 32.0719L48.7888 32.0678L48.0838 32.777ZM53.7954 36.3228L53.4782 37.2712L54.065 37.4675L54.5026 37.0299L53.7954 36.3228ZM40.2509 51.2816L52.5632 38.9693L51.1489 37.5551L38.8367 49.8674L40.2509 51.2816ZM52.2413 37.3394C50.2908 36.5251 48.5193 35.3352 47.0277 33.8376L45.6107 35.2489C47.2872 36.9323 49.2783 38.2697 51.4708 39.185L52.2413 37.3394ZM47.0248 33.8346C45.5264 32.3427 44.336 30.5707 43.5213 28.6194L41.6758 29.39C42.5915 31.5832 43.9295 33.5749 45.6136 35.2519L47.0248 33.8346ZM41.8914 28.2976L29.5792 40.6099L30.9934 42.0241L43.3057 29.7118L41.8914 28.2976ZM29.5792 40.6099C28.6354 41.5537 28.1027 42.084 27.6433 42.673L29.2204 43.903C29.5867 43.4333 30.0162 43.0013 30.9934 42.0241L29.5792 40.6099ZM27.6435 42.6727C27.1112 43.3547 26.6548 44.0926 26.2824 44.8734L28.0875 45.7345C28.3974 45.0848 28.7772 44.4708 29.2201 43.9033L27.6435 42.6727ZM26.2818 44.8747C25.9615 45.5486 25.7259 46.2625 25.304 47.5281L27.2014 48.1606C27.6385 46.8492 27.8324 46.2713 28.0881 45.7332L26.2818 44.8747ZM25.3041 47.5279L23.0367 54.3249L24.934 54.9578L27.2013 48.1608L25.3041 47.5279ZM23.0372 54.3235C22.8737 54.811 22.8495 55.3346 22.9672 55.8352L24.9141 55.3774C24.8815 55.2389 24.8883 55.0942 24.9335 54.9593L23.0372 54.3235ZM22.9672 55.8352C23.0849 56.3358 23.3399 56.7936 23.7035 57.1573L25.1177 55.743C25.0172 55.6425 24.9467 55.5158 24.9141 55.3774L22.9672 55.8352ZM23.7035 57.1573C24.0672 57.5209 24.525 57.7759 25.0256 57.8936L25.4834 55.9467C25.3449 55.9141 25.2183 55.8436 25.1177 55.743L23.7035 57.1573ZM25.0256 57.8936C25.5262 58.0113 26.0497 57.987 26.5373 57.8236L25.9015 55.9273C25.7666 55.9725 25.6218 55.9792 25.4834 55.9467L25.0256 57.8936ZM26.5358 57.824L33.3329 55.5567L32.7 53.6595L25.903 55.9268L26.5358 57.824ZM33.3323 55.5569C34.6005 55.1347 35.3122 54.8993 35.9861 54.579L35.1275 52.7727C34.5895 53.0284 34.0127 53.2225 32.7006 53.6593L33.3323 55.5569ZM35.9871 54.5785C36.7685 54.206 37.5066 53.7498 38.1885 53.217L36.9571 51.641C36.3905 52.0837 35.7768 52.4632 35.1265 52.7732L35.9871 54.5785ZM38.1877 53.2175C38.7768 52.7581 39.3071 52.2254 40.2509 51.2816L38.8367 49.8674C37.8594 50.8446 37.4275 51.2741 36.9578 51.6404L38.1877 53.2175ZM55.9792 35.5533C57.3943 34.1382 58.1893 32.2188 58.1893 30.2175H56.1893C56.1893 31.6884 55.605 33.099 54.5649 34.1391L55.9792 35.5533ZM58.1893 30.2175C58.1893 28.2161 57.3943 26.2968 55.9792 24.8816L54.5649 26.2958C55.605 27.3359 56.1893 28.7466 56.1893 30.2175H58.1893ZM55.9792 24.8816C54.564 23.4665 52.6446 22.6714 50.6433 22.6714V24.6714C52.1142 24.6714 53.5249 25.2558 54.5649 26.2958L55.9792 24.8816ZM50.6433 22.6714C48.642 22.6714 46.7226 23.4665 45.3074 24.8816L46.7217 26.2958C47.7617 25.2558 49.1724 24.6714 50.6433 24.6714V22.6714ZM45.3074 24.8816L43.8308 26.3582L45.2451 27.7724L46.7217 26.2958L45.3074 24.8816ZM43.5919 27.3892L43.6551 27.574L45.5473 26.9262L45.484 26.7415L43.5919 27.3892ZM43.6572 27.58C44.4348 29.805 45.7073 31.8244 47.3788 33.4862L48.7888 32.0678C47.332 30.6195 46.223 28.8594 45.5452 26.9202L43.6572 27.58ZM47.3746 33.482C49.086 35.2035 51.1762 36.5011 53.4782 37.2712L54.1127 35.3745C52.1063 34.7033 50.2846 33.5724 48.793 32.072L47.3746 33.482ZM54.5026 37.0299L55.9792 35.5533L54.5649 34.1391L53.0883 35.6157L54.5026 37.0299Z" fill="white" mask="url(#path-2-inside-1_35_3071)"/>
</svg>