<svg width="251" height="56" viewBox="0 0 251 56" fill="none" xmlns="http://www.w3.org/2000/svg">
<rect width="83.1081" height="50" rx="15" fill="#F8190B"/>
<path d="M36.1357 11.0234C38.0071 10.7592 39.9896 12.7641 40.5605 15.5307C41.1315 18.2817 40.1006 20.7374 38.2292 21.0171C36.3736 21.2969 34.3753 19.2919 33.7885 16.5254C33.2017 13.7744 34.2643 11.3187 36.1357 11.0234ZM47.4753 11.0234C49.3626 11.3187 50.4093 13.7744 49.8542 16.5254C49.2516 19.2919 47.2691 21.2969 45.3977 21.0171C43.5104 20.7374 42.4795 18.2817 43.0663 15.5307C43.6373 12.7641 45.6197 10.7592 47.4753 11.0234ZM27.6509 18.1729C29.4588 17.4113 31.9171 18.7946 33.2017 21.2036C34.407 23.6593 33.9947 26.2393 32.2025 27.0009C30.4104 27.7625 27.968 26.3948 26.7151 23.9546C25.4622 21.5145 25.9063 18.9189 27.6509 18.1729ZM56.198 18.1729C57.9426 18.9189 58.3867 21.5145 57.1338 23.9546C55.8809 26.3948 53.4385 27.7625 51.6464 27.0009C49.8542 26.2393 49.4419 23.6593 50.6472 21.2036C51.9318 18.7946 54.3901 17.4113 56.198 18.1729ZM53.5495 34.9275C53.6129 36.3885 52.4711 38.0049 51.1071 38.6111C48.2683 39.8855 44.906 37.2433 41.75 37.2433C38.5939 37.2433 35.2 39.9943 32.4087 38.6111C30.8228 37.8495 29.7285 35.829 29.9346 34.1504C30.2201 31.8346 33.059 30.5912 34.7401 28.8971C36.9763 26.7056 38.5622 22.5869 41.75 22.5869C44.9219 22.5869 46.603 26.6434 48.7441 28.8971C50.5045 30.7933 53.4385 32.3941 53.5495 34.9275Z" fill="white"/>
<path d="M92.05 46V5.5H103.95C106.383 5.5 108.35 5.95 109.85 6.85C111.383 7.75 112.5 9.06666 113.2 10.8C113.933 12.5 114.3 14.5667 114.3 17C114.3 19.6333 113.85 21.7667 112.95 23.4C112.05 25 110.783 26.1667 109.15 26.9C107.55 27.6333 105.65 28 103.45 28H99.45V46H92.05ZM99.45 22.8H102.25C103.583 22.8 104.617 22.6167 105.35 22.25C106.117 21.85 106.633 21.2333 106.9 20.4C107.2 19.5333 107.35 18.3833 107.35 16.95C107.35 15.4833 107.233 14.3 107 13.4C106.8 12.4667 106.333 11.7833 105.6 11.35C104.9 10.9167 103.783 10.7 102.25 10.7H99.45V22.8ZM116.867 46V17.1H123.667V21.55C124.667 19.85 125.667 18.6333 126.667 17.9C127.667 17.1333 128.767 16.75 129.967 16.75C130.167 16.75 130.334 16.7667 130.467 16.8C130.634 16.8 130.817 16.8167 131.017 16.85V23.9C130.617 23.7333 130.167 23.6 129.667 23.5C129.201 23.3667 128.717 23.3 128.217 23.3C127.317 23.3 126.501 23.5167 125.767 23.95C125.034 24.3833 124.334 25.1 123.667 26.1V46H116.867ZM141.844 46.45C139.744 46.45 138.011 46.0667 136.644 45.3C135.277 44.5 134.244 43.35 133.544 41.85C132.877 40.35 132.544 38.5333 132.544 36.4V26.7C132.544 24.5667 132.877 22.75 133.544 21.25C134.244 19.75 135.277 18.6167 136.644 17.85C138.011 17.05 139.744 16.65 141.844 16.65C143.944 16.65 145.677 17.05 147.044 17.85C148.444 18.6167 149.477 19.75 150.144 21.25C150.844 22.75 151.194 24.5667 151.194 26.7V36.4C151.194 38.5333 150.844 40.35 150.144 41.85C149.477 43.35 148.444 44.5 147.044 45.3C145.677 46.0667 143.944 46.45 141.844 46.45ZM141.894 41.75C142.661 41.75 143.227 41.5333 143.594 41.1C143.961 40.6667 144.194 40.0833 144.294 39.35C144.394 38.5833 144.444 37.75 144.444 36.85V26.25C144.444 25.35 144.394 24.5333 144.294 23.8C144.194 23.0667 143.961 22.4833 143.594 22.05C143.227 21.5833 142.661 21.35 141.894 21.35C141.127 21.35 140.561 21.5833 140.194 22.05C139.827 22.4833 139.577 23.0667 139.444 23.8C139.344 24.5333 139.294 25.35 139.294 26.25V36.85C139.294 37.75 139.344 38.5833 139.444 39.35C139.577 40.0833 139.827 40.6667 140.194 41.1C140.561 41.5333 141.127 41.75 141.894 41.75ZM163.098 55.5C161.131 55.5 159.398 55.3 157.898 54.9C156.398 54.5 155.231 53.8833 154.398 53.05C153.565 52.2167 153.148 51.1333 153.148 49.8C153.148 48.9 153.331 48.0833 153.698 47.35C154.098 46.65 154.631 46.0333 155.298 45.5C155.965 44.9667 156.681 44.5167 157.448 44.15C156.348 43.85 155.498 43.3667 154.898 42.7C154.331 42.0333 154.048 41.2333 154.048 40.3C154.048 39.1667 154.331 38.2 154.898 37.4C155.465 36.6 156.248 35.75 157.248 34.85C156.215 34.0167 155.431 32.9833 154.898 31.75C154.398 30.4833 154.148 28.8333 154.148 26.8C154.148 24.6 154.498 22.75 155.198 21.25C155.931 19.7167 156.981 18.5667 158.348 17.8C159.748 17.0333 161.448 16.65 163.448 16.65C164.981 16.65 166.265 16.8833 167.298 17.35C168.331 17.7833 169.181 18.45 169.848 19.35C170.115 18.95 170.581 18.45 171.248 17.85C171.915 17.25 172.681 16.75 173.548 16.35L174.448 15.95L176.098 19.6C175.731 19.7 175.231 19.8667 174.598 20.1C173.998 20.3333 173.398 20.5833 172.798 20.85C172.198 21.1167 171.731 21.35 171.398 21.55C171.698 22.2167 171.948 23.05 172.148 24.05C172.348 25.05 172.448 26 172.448 26.9C172.448 28.9333 172.131 30.7 171.498 32.2C170.865 33.7 169.881 34.8667 168.548 35.7C167.248 36.5 165.548 36.9 163.448 36.9C162.748 36.9 162.065 36.85 161.398 36.75C160.731 36.6167 160.115 36.4667 159.548 36.3C159.348 36.6 159.148 36.9167 158.948 37.25C158.781 37.5833 158.698 37.9333 158.698 38.3C158.698 38.6667 158.898 38.9667 159.298 39.2C159.698 39.4333 160.365 39.6 161.298 39.7L167.398 40.3C169.765 40.5333 171.515 41.2833 172.648 42.55C173.781 43.7833 174.348 45.4667 174.348 47.6C174.348 49.3333 173.948 50.7833 173.148 51.95C172.381 53.1167 171.165 54 169.498 54.6C167.865 55.2 165.731 55.5 163.098 55.5ZM163.848 50.4C165.715 50.4 167.115 50.2167 168.048 49.85C168.981 49.4833 169.448 48.8167 169.448 47.85C169.448 47.3167 169.331 46.8833 169.098 46.55C168.865 46.2167 168.448 45.95 167.848 45.75C167.248 45.5167 166.398 45.35 165.298 45.25L160.348 44.8C159.981 45.1 159.648 45.4167 159.348 45.75C159.081 46.05 158.865 46.3833 158.698 46.75C158.531 47.1167 158.448 47.5 158.448 47.9C158.448 48.7333 158.848 49.35 159.648 49.75C160.448 50.1833 161.848 50.4 163.848 50.4ZM163.448 32.55C164.048 32.55 164.531 32.45 164.898 32.25C165.265 32.0167 165.548 31.6667 165.748 31.2C165.948 30.7 166.081 30.0833 166.148 29.35C166.215 28.6167 166.248 27.7667 166.248 26.8C166.248 25.8333 166.215 24.9833 166.148 24.25C166.081 23.5167 165.948 22.9 165.748 22.4C165.581 21.9 165.315 21.5333 164.948 21.3C164.581 21.0667 164.081 20.95 163.448 20.95C162.848 20.95 162.348 21.0667 161.948 21.3C161.581 21.5333 161.298 21.9 161.098 22.4C160.931 22.8667 160.798 23.4667 160.698 24.2C160.631 24.9333 160.598 25.8 160.598 26.8C160.598 27.7333 160.631 28.5667 160.698 29.3C160.765 30 160.898 30.6 161.098 31.1C161.298 31.5667 161.581 31.9333 161.948 32.2C162.348 32.4333 162.848 32.55 163.448 32.55ZM176.936 46V17.1H183.736V21.55C184.736 19.85 185.736 18.6333 186.736 17.9C187.736 17.1333 188.836 16.75 190.036 16.75C190.236 16.75 190.402 16.7667 190.536 16.8C190.702 16.8 190.886 16.8167 191.086 16.85V23.9C190.686 23.7333 190.236 23.6 189.736 23.5C189.269 23.3667 188.786 23.3 188.286 23.3C187.386 23.3 186.569 23.5167 185.836 23.95C185.102 24.3833 184.402 25.1 183.736 26.1V46H176.936ZM201.913 46.45C199.746 46.45 197.979 46.05 196.613 45.25C195.246 44.4167 194.229 43.2167 193.563 41.65C192.929 40.05 192.613 38.1333 192.613 35.9V27.2C192.613 24.9 192.929 22.9667 193.563 21.4C194.229 19.8333 195.246 18.65 196.613 17.85C198.013 17.05 199.779 16.65 201.913 16.65C204.213 16.65 205.996 17.0833 207.263 17.95C208.563 18.8167 209.479 20.0833 210.013 21.75C210.579 23.3833 210.863 25.3833 210.863 27.75V31.85H199.363V37.55C199.363 38.4833 199.446 39.25 199.613 39.85C199.813 40.45 200.113 40.8833 200.513 41.15C200.913 41.4167 201.396 41.55 201.963 41.55C202.563 41.55 203.046 41.4167 203.412 41.15C203.779 40.85 204.046 40.4333 204.213 39.9C204.379 39.3333 204.463 38.6333 204.463 37.8V35.4H210.813V37.35C210.813 40.2833 210.079 42.5333 208.613 44.1C207.146 45.6667 204.913 46.45 201.913 46.45ZM199.363 28.5H204.463V25.75C204.463 24.75 204.379 23.95 204.213 23.35C204.046 22.7167 203.779 22.2667 203.412 22C203.046 21.7 202.529 21.55 201.863 21.55C201.263 21.55 200.779 21.7 200.413 22C200.046 22.3 199.779 22.8 199.613 23.5C199.446 24.2 199.363 25.2 199.363 26.5V28.5ZM222.077 46.45C219.644 46.45 217.644 45.8 216.077 44.5C214.51 43.2 213.394 41.3 212.727 38.8L217.777 36.85C218.177 38.4167 218.71 39.6167 219.377 40.45C220.044 41.2833 220.91 41.7 221.977 41.7C222.777 41.7 223.377 41.5 223.777 41.1C224.177 40.7 224.377 40.15 224.377 39.45C224.377 38.65 224.127 37.9333 223.627 37.3C223.16 36.6333 222.344 35.8167 221.177 34.85L217.677 31.9C216.41 30.8 215.377 29.6833 214.577 28.55C213.81 27.3833 213.427 25.9333 213.427 24.2C213.427 22.6333 213.777 21.3 214.477 20.2C215.21 19.0667 216.194 18.2 217.427 17.6C218.694 16.9667 220.094 16.65 221.627 16.65C223.96 16.65 225.827 17.35 227.227 18.75C228.66 20.1167 229.577 21.9167 229.977 24.15L225.527 26.05C225.36 25.25 225.11 24.5167 224.777 23.85C224.477 23.15 224.077 22.5833 223.577 22.15C223.077 21.7167 222.494 21.5 221.827 21.5C221.127 21.5 220.56 21.7167 220.127 22.15C219.727 22.5833 219.527 23.1333 219.527 23.8C219.527 24.3667 219.76 24.95 220.227 25.55C220.727 26.15 221.427 26.8333 222.327 27.6L225.877 30.8C226.644 31.4667 227.377 32.1833 228.077 32.95C228.777 33.7167 229.36 34.5833 229.827 35.55C230.294 36.4833 230.527 37.5667 230.527 38.8C230.527 40.4667 230.144 41.8667 229.377 43C228.644 44.1333 227.627 45 226.327 45.6C225.06 46.1667 223.644 46.45 222.077 46.45ZM240.846 46.45C238.413 46.45 236.413 45.8 234.846 44.5C233.28 43.2 232.163 41.3 231.496 38.8L236.546 36.85C236.946 38.4167 237.48 39.6167 238.146 40.45C238.813 41.2833 239.68 41.7 240.746 41.7C241.546 41.7 242.146 41.5 242.546 41.1C242.946 40.7 243.146 40.15 243.146 39.45C243.146 38.65 242.896 37.9333 242.396 37.3C241.93 36.6333 241.113 35.8167 239.946 34.85L236.446 31.9C235.18 30.8 234.146 29.6833 233.346 28.55C232.58 27.3833 232.196 25.9333 232.196 24.2C232.196 22.6333 232.546 21.3 233.246 20.2C233.98 19.0667 234.963 18.2 236.196 17.6C237.463 16.9667 238.863 16.65 240.396 16.65C242.73 16.65 244.596 17.35 245.996 18.75C247.43 20.1167 248.346 21.9167 248.746 24.15L244.296 26.05C244.13 25.25 243.88 24.5167 243.546 23.85C243.246 23.15 242.846 22.5833 242.346 22.15C241.846 21.7167 241.263 21.5 240.596 21.5C239.896 21.5 239.33 21.7167 238.896 22.15C238.496 22.5833 238.296 23.1333 238.296 23.8C238.296 24.3667 238.53 24.95 238.996 25.55C239.496 26.15 240.196 26.8333 241.096 27.6L244.646 30.8C245.413 31.4667 246.146 32.1833 246.846 32.95C247.546 33.7167 248.13 34.5833 248.596 35.55C249.063 36.4833 249.296 37.5667 249.296 38.8C249.296 40.4667 248.913 41.8667 248.146 43C247.413 44.1333 246.396 45 245.096 45.6C243.83 46.1667 242.413 46.45 240.846 46.45Z" fill="black"/>
</svg>
