<svg width="32" height="32" viewBox="0 0 32 32" fill="none" xmlns="http://www.w3.org/2000/svg">
<g clip-path="url(#clip0_2034_261)">
<path d="M15.1056 24.5709L25.4597 14.2168C23.7176 13.4895 22.1356 12.4269 20.8034 11.0893C19.4653 9.75688 18.4021 8.17432 17.6745 6.4317L7.3205 16.7857C6.51273 17.5935 6.10815 17.9981 5.76096 18.4433C5.35092 18.9686 4.99933 19.5371 4.7124 20.1386C4.47021 20.6482 4.28961 21.1914 3.92842 22.2749L2.02169 27.9909C1.93394 28.2526 1.92092 28.5337 1.9841 28.8024C2.04728 29.0711 2.18415 29.3168 2.37934 29.512C2.57453 29.7072 2.82029 29.8441 3.089 29.9073C3.35771 29.9704 3.63871 29.9574 3.90043 29.8697L9.61642 27.9629C10.7014 27.6017 11.2432 27.4212 11.7527 27.179C12.3547 26.892 12.9231 26.5406 13.4481 26.1304C13.8933 25.7832 14.2979 25.3786 15.1056 24.5709ZM28.3323 11.3441C29.3647 10.3118 29.9447 8.91156 29.9447 7.45157C29.9447 5.99157 29.3647 4.59138 28.3323 3.55901C27.3 2.52664 25.8998 1.94666 24.4398 1.94666C22.9798 1.94666 21.5796 2.52664 20.5472 3.55901L19.3055 4.80076L19.3587 4.95616C19.9706 6.7071 20.972 8.2963 22.2874 9.60399C23.6342 10.9587 25.279 11.9799 27.0906 12.5859L28.3323 11.3441Z" fill="#F8F8F8" stroke="#565252" stroke-width="4"/>
</g>
<defs>
<clipPath id="clip0_2034_261">
<rect width="32" height="32" fill="white"/>
</clipPath>
</defs>
</svg>
