<svg width="32" height="28" viewBox="0 0 32 28" fill="none" xmlns="http://www.w3.org/2000/svg">
<g clip-path="url(#clip0_2034_611)">
<path fill-rule="evenodd" clip-rule="evenodd" d="M3.58273 6.97346V3.83243H12.5092L14.4096 6.97346H3.58273ZM0.732056 6.97346V2.78542C0.732056 2.23006 0.932281 1.69743 1.28869 1.30473C1.64509 0.912025 2.12848 0.691406 2.63251 0.691406H13.0185C13.3313 0.691355 13.6393 0.776377 13.9151 0.93893C14.1909 1.10148 14.4261 1.33654 14.5997 1.62324L17.7677 6.85829L17.8323 6.97346H29.2388C29.7429 6.97346 30.2263 7.19408 30.5827 7.58678C30.9391 7.97949 31.1393 8.51211 31.1393 9.06747V25.8196C31.1393 26.375 30.9391 26.9076 30.5827 27.3003C30.2263 27.693 29.7429 27.9136 29.2388 27.9136H2.63251C2.12848 27.9136 1.64509 27.693 1.28869 27.3003C0.932281 26.9076 0.732056 26.375 0.732056 25.8196V6.97346ZM3.58273 10.1145V24.7726H28.2886V10.1145H3.58273Z" fill="#565252"/>
</g>
<defs>
<clipPath id="clip0_2034_611">
<rect width="32" height="28" fill="white"/>
</clipPath>
</defs>
</svg>
